<?xml version="1.0" encoding="UTF-8"?>
<svg xmlns="http://www.w3.org/2000/svg" xmlns:xlink="http://www.w3.org/1999/xlink" width="38px" height="30px" viewBox="0 0 37 30" version="1.1">
<g id="surface1">
<path style=" stroke:none;fill-rule:nonzero;fill:rgb(0%,0%,0%);fill-opacity:1;" d="M 12.949219 5.625 C 11.925781 5.625 11.101562 6.460938 11.101562 7.445312 L 11.101562 22.445312 C 11.101562 23.539062 11.925781 24.375 12.898438 24.375 C 13.871094 24.375 14.800781 23.539062 14.800781 22.5 L 14.800781 7.445312 C 14.800781 6.460938 13.972656 5.625 12.949219 5.625 Z M 1.851562 13.125 C 0.828125 13.125 0 13.960938 0 14.945312 C 0 15.929688 0.828125 16.875 1.796875 16.875 C 2.765625 16.875 3.699219 16.039062 3.699219 15 C 3.699219 13.960938 2.871094 13.125 1.851562 13.125 Z M 18.5 0 C 17.476562 0 16.648438 0.839844 16.648438 1.820312 L 16.648438 28.125 C 16.648438 29.164062 17.476562 30 18.449219 30 C 19.417969 30 20.351562 29.164062 20.351562 28.125 L 20.351562 1.820312 C 20.351562 0.839844 19.523438 0 18.5 0 Z M 7.398438 11.25 C 6.375 11.25 5.550781 12.085938 5.550781 13.070312 L 5.550781 16.875 C 5.550781 17.914062 6.375 18.75 7.347656 18.75 C 8.320312 18.75 9.25 17.914062 9.25 16.875 L 9.25 13.070312 C 9.25 12.085938 8.421875 11.25 7.398438 11.25 Z M 35.148438 13.125 C 34.128906 13.125 33.300781 13.964844 33.300781 14.945312 C 33.300781 15.929688 34.125 16.875 35.148438 16.875 C 36.171875 16.875 37 16.035156 37 15.050781 C 37 14.070312 36.171875 13.125 35.148438 13.125 Z M 24.050781 7.5 C 23.027344 7.5 22.199219 8.335938 22.199219 9.320312 L 22.199219 20.570312 C 22.199219 21.664062 23.027344 22.5 23.996094 22.5 C 24.96875 22.5 25.898438 21.664062 25.898438 20.625 L 25.898438 9.320312 C 25.898438 8.335938 25.074219 7.5 24.050781 7.5 Z M 29.601562 3.75 C 28.578125 3.75 27.75 4.589844 27.75 5.570312 L 27.75 24.375 C 27.75 25.414062 28.578125 26.25 29.546875 26.25 C 30.625 26.25 31.449219 25.414062 31.449219 24.375 L 31.449219 5.570312 C 31.449219 4.589844 30.625 3.75 29.601562 3.75 Z M 29.601562 3.75 "/>
</g>
</svg>
