<?xml version="1.0" encoding="UTF-8"?>
<svg xmlns="http://www.w3.org/2000/svg" xmlns:xlink="http://www.w3.org/1999/xlink" width="34px" height="30px" viewBox="0 0 33 30" version="1.1">
<g id="surface1">
<path style=" stroke:none;fill-rule:nonzero;fill:rgb(0%,0%,0%);fill-opacity:1;" d="M 22 6.5625 L 22 23.4375 C 22 24.992188 20.769531 26.25 19.25 26.25 L 2.75 26.25 C 1.230469 26.25 0 24.992188 0 23.4375 L 0 6.5625 C 0 5.007812 1.230469 3.75 2.75 3.75 L 19.25 3.75 C 20.769531 3.75 22 5.007812 22 6.5625 Z M 33 7.46875 L 33 22.523438 C 33 24.015625 31.328125 24.890625 30.113281 24.035156 L 23.832031 19.609375 L 23.832031 10.390625 L 30.113281 5.960938 C 31.332031 5.105469 33 5.984375 33 7.46875 Z M 33 7.46875 "/>
</g>
</svg>
